<?xml version="1.0" standalone="no"?><!DOCTYPE svg PUBLIC "-//W3C//DTD SVG 1.1//EN" "http://www.w3.org/Graphics/SVG/1.1/DTD/svg11.dtd"><svg class="icon" width="200px" height="200.00px" viewBox="0 0 1024 1024" version="1.1" xmlns="http://www.w3.org/2000/svg"><path fill="#333333" d="M840.397 755.712c3.072 0 5.632-2.662 5.632-5.99a5.786 5.786 0 0 0-5.632-5.94c-3.123 0-5.632 2.663-5.632 5.94 0 3.328 2.509 5.99 5.632 5.99z m-118.58 141.517c6.145 0 11.162-5.274 11.162-11.827a11.52 11.52 0 0 0-11.161-11.828 11.52 11.52 0 0 0-11.213 11.828c0 6.553 5.017 11.827 11.213 11.827z m-161.689 75.776a17.306 17.306 0 0 0 16.794-17.767c0-9.83-7.527-17.817-16.794-17.817a17.306 17.306 0 0 0-16.845 17.817c0 9.83 7.527 17.818 16.845 17.818z m-174.592-3.43a23.04 23.04 0 0 0 22.374-23.706 23.04 23.04 0 0 0-22.374-23.706 23.04 23.04 0 0 0-22.374 23.706 23.04 23.04 0 0 0 22.374 23.705z m-154.112-80.897c15.411 0 27.955-13.312 27.955-29.644 0-16.384-12.544-29.645-28.006-29.645-15.463 0-28.007 13.312-28.007 29.645 0 16.384 12.544 29.644 28.007 29.644zM126.31 747.008c18.535 0 33.588-15.974 33.588-35.635 0-19.661-15.053-35.584-33.588-35.584-18.585 0-33.638 15.923-33.638 35.584 0 19.66 15.053 35.635 33.638 35.635zM90.317 571.597c21.657 0 39.168-18.586 39.168-41.472 0-22.938-17.51-41.472-39.168-41.472-21.607 0-39.168 18.534-39.168 41.472 0 22.886 17.561 41.472 39.168 41.472z m39.782-174.131c24.781 0 44.8-21.248 44.8-47.463s-20.019-47.411-44.8-47.411c-24.73 0-44.8 21.197-44.8 47.411s20.07 47.463 44.8 47.463z m108.135-139.264c27.852 0 50.432-23.91 50.432-53.402 0-29.491-22.528-53.402-50.432-53.402-27.853 0-50.432 23.91-50.432 53.402 0 29.491 22.579 53.402 50.432 53.402z m156.108-77.312c30.925 0 55.962-26.522 55.962-59.29s-25.088-59.29-55.962-59.29c-30.924 0-56.012 26.573-56.012 59.29 0 32.768 25.088 59.29 56.012 59.29z m174.644 0.819c34.048 0 61.644-29.184 61.644-65.28 0-35.994-27.596-65.229-61.644-65.229-33.997 0-61.594 29.184-61.594 65.229s27.597 65.28 61.594 65.28z m160.358 79.616c37.12 0 67.174-31.847 67.174-71.168 0-39.22-30.054-71.117-67.174-71.117-37.069 0-67.174 31.898-67.174 71.168 0 39.27 30.105 71.168 67.174 71.168z m115.61 144.486c40.192 0 72.806-34.509 72.806-77.056 0-42.598-32.614-77.107-72.806-77.107s-72.756 34.509-72.756 77.107c0 42.547 32.564 77.056 72.756 77.056z m49.408 185.447c43.264 0 78.387-37.223 78.387-83.047 0-45.875-35.123-83.046-78.387-83.046-43.316 0-78.439 37.171-78.439 83.046 0 45.824 35.123 83.047 78.439 83.047z"  /></svg>