<?xml version="1.0" standalone="no"?><!DOCTYPE svg PUBLIC "-//W3C//DTD SVG 1.1//EN" "http://www.w3.org/Graphics/SVG/1.1/DTD/svg11.dtd"><svg t="1589442577160" class="icon" viewBox="0 0 1024 1024" version="1.1" xmlns="http://www.w3.org/2000/svg" p-id="1953" xmlns:xlink="http://www.w3.org/1999/xlink" width="200" height="200"><defs><style type="text/css"></style></defs><path d="M741.216 695.968l192.896 192.864a31.968 31.968 0 1 1-45.28 45.28L695.968 741.216A382.464 382.464 0 0 1 448 832C235.936 832 64 660.064 64 448S235.936 64 448 64s384 171.936 384 384c0 94.528-34.144 181.056-90.784 247.968zM448 768c176.736 0 320-143.264 320-320S624.736 128 448 128 128 271.264 128 448s143.264 320 320 320z" fill="#333333" p-id="1954"></path></svg>